<svg width="375" height="410" viewBox="0 0 375 410" fill="none" xmlns="http://www.w3.org/2000/svg">
<g clip-path="url(#clip0_48_297)">
<path d="M269.907 87.2887L292.189 123.559C292.189 123.559 278.761 130.059 259.764 144.548C243.625 156.911 223.188 180.243 223.188 180.243L185.333 115.065C185.333 115.065 202.241 95.044 227.363 78.191C250.593 62.5294 255.426 63.5231 255.426 63.5231L269.907 87.2887Z" fill="white" stroke="#262626" stroke-width="0.496227" stroke-miterlimit="10"/>
<path d="M193.38 106.39L226.755 165.032C226.755 165.032 237.905 152.719 250.218 142.194C271.465 124.193 287.802 116.553 287.802 116.553L255.295 63.449C255.427 63.5236 225.729 71.0887 193.38 106.39Z" fill="#262626"/>
<path d="M360.403 97.3185C360.403 97.3185 342.618 83.6915 305.765 97.129C268.912 110.566 228.89 146.661 228.89 146.661L191.866 82.4752C191.866 82.4752 242.387 40.1367 276.345 33.502C303.862 28.0969 318.268 35.549 318.268 35.549L360.403 97.3185Z" fill="white" stroke="#262626" stroke-width="0.496227" stroke-miterlimit="10"/>
<path d="M352.065 68.8472L307.663 162.937L183.499 147.351" stroke="#FF6B00" stroke-width="0.496227" stroke-miterlimit="10"/>
<path d="M183.088 198.804L251.02 179.974L260.373 213.717L192.441 232.547L183.088 198.804Z" fill="white" stroke="#FF6B00" stroke-width="0.496227" stroke-miterlimit="10"/>
<path d="M148.682 337.796L140.939 339.942C138.916 339.059 136.817 338.307 134.765 337.32C134.501 337.171 134.266 337.125 134.002 336.976L131.543 328.101L144.964 324.381L148.682 337.796Z" fill="white" stroke="#FF6B00" stroke-width="0.496227" stroke-miterlimit="10"/>
<path d="M165.82 347.489L179.241 343.769L175.523 330.354L162.102 334.075L158.383 320.66L171.805 316.94L168.086 303.525L154.665 307.245L141.244 310.965L137.526 297.551L150.947 293.831L147.228 280.416L133.807 284.136L137.526 297.551L124.104 301.271L110.683 304.991L106.965 291.576L93.5437 295.297L80.1226 299.017L83.8409 312.431L87.5592 325.846L74.138 329.566L70.4197 316.152L64.4318 317.811L58.1679 227.431C58.1679 227.431 67.0596 214.188 90.95 213.344C126.734 212.093 144.297 231.337 173.911 237.907C192.522 242.082 196.651 233.715 196.651 233.715L208.727 311.373C208.727 311.373 239.875 304.628 257.661 325.477C268.215 337.886 252.351 350.839 235.936 355.389C218.798 360.14 198.529 357.202 166.077 348.418L165.82 347.489V347.489Z" fill="white" stroke="#FF6B00" stroke-width="0.496227" stroke-miterlimit="10"/>
<path d="M165.821 347.491L164.169 347.949C159.588 346.663 154.95 345.17 150.254 343.472L148.681 337.796L162.103 334.076L165.821 347.491Z" fill="white" stroke="#FF6B00" stroke-width="0.496227" stroke-miterlimit="10"/>
<path d="M131.543 328.1L118.431 331.734C118.328 331.763 118.196 331.688 118.093 331.717L114.403 318.405L127.824 314.685L131.543 328.1Z" fill="white" stroke="#FF6B00" stroke-width="0.496227" stroke-miterlimit="10"/>
<path d="M103.156 329.967C97.9321 329.971 93.3497 330.685 89.1915 331.727L87.5612 325.845L100.982 322.125L103.156 329.967Z" fill="white" stroke="#FF6B00" stroke-width="0.496227" stroke-miterlimit="10"/>
<path d="M67.5349 345.841L66.5025 346.127L65.4685 331.969L74.1406 329.565L76.3144 337.407C71.8912 340.3 68.907 343.572 67.5349 345.841Z" fill="white" stroke="#FF6B00" stroke-width="0.496227" stroke-miterlimit="10"/>
<path d="M97.2625 308.712L110.684 304.992L114.402 318.406L100.981 322.126L97.2625 308.712Z" fill="white" stroke="#FF6B00" stroke-width="0.496227" stroke-miterlimit="10"/>
<path d="M185.012 239.05L197.369 332.964C197.369 332.964 219.865 317.061 249.95 321.723L233.192 231.585C233.192 231.585 218.904 220.545 196.783 233.788C196.783 233.788 192.22 239.386 185.012 239.05Z" fill="#262626"/>
<path d="M196.786 233.789L193.934 211.467C193.934 211.467 227.255 205.342 243.602 225.812L260.643 330.206C260.643 330.206 258.887 323.47 238.746 317.386C226.62 313.746 209.981 318.692 209.981 318.692L196.786 233.789Z" fill="white" stroke="#FF6B00" stroke-width="0.496227" stroke-miterlimit="10"/>
<path d="M114.731 215.306C114.731 215.306 101.747 208.571 85.3086 214.239C68.8698 219.906 29.1969 256.46 29.1969 256.46L27.9503 327.365C27.9503 327.365 76.3714 286.276 92.3212 282.855C107.52 279.531 120.475 286.162 120.475 286.162L114.731 215.306Z" fill="#262626"/>
<path d="M102.07 197.704C102.07 197.704 89.8122 193.99 72.6471 196.637C57.1911 199.032 16.5354 238.858 16.5354 238.858L15.2888 309.764C15.2888 309.764 64.1961 270.428 79.6597 265.253C95.1234 260.078 107.529 265.528 107.529 265.528L102.07 197.704Z" fill="white" stroke="#FF6B00" stroke-width="0.496227" stroke-miterlimit="10"/>
<path d="M61.3184 201.888L61.5492 233.604L30.6522 258.502L30.8294 225.451L53.3899 206.975L61.3184 201.888Z" fill="#262626"/>
<path d="M96.8534 337.713L131.542 328.098L137.634 350.077L102.946 359.692L96.8534 337.713Z" fill="white" stroke="#FF6B00" stroke-width="0.496227" stroke-miterlimit="10"/>
<path d="M128.818 341.249L125.012 344.734L124.768 343.853L127.69 341.295L127.674 341.24L123.853 340.551L123.609 339.67L128.665 340.699L128.818 341.249ZM118.817 338.746L119.56 338.54L124.169 346.346L123.426 346.552L118.817 338.746ZM115.434 347.626L111.497 345.398L113.725 341.461L114.401 341.844L112.823 344.623L118.472 343.057L118.682 343.814L113.033 345.38L115.818 346.957L115.434 347.626ZM105.304 347.767L105.151 347.216L108.957 343.731L109.201 344.612L106.28 347.17L106.295 347.225L110.117 347.915L110.361 348.795L105.304 347.767Z" fill="black"/>
<path d="M53.3418 199.989L53.4694 231.733L22.5724 256.632L22.7594 226.023L53.3418 199.989Z" fill="white" stroke="#262626" stroke-width="0.496227" stroke-miterlimit="10"/>
<path d="M97.6987 173.915L94.8918 144.135L125.817 119.34L128.281 147.881L97.6987 173.915Z" fill="white" stroke="#262626" stroke-width="0.496227" stroke-miterlimit="10"/>
<path d="M111.591 151.842C109.652 152.379 107.645 151.244 107.108 149.307C106.571 147.369 107.707 145.363 109.646 144.825C111.585 144.288 113.592 145.423 114.129 147.361C114.666 149.298 113.53 151.305 111.591 151.842Z" fill="white" stroke="#262626" stroke-width="0.496227" stroke-miterlimit="10"/>
<path d="M38.7207 237.489L38.7188 248.712L27.8173 257.512L27.9336 246.702L38.7207 237.489Z" fill="white" stroke="#262626" stroke-width="0.496227" stroke-miterlimit="10"/>
<path d="M78.2598 254.197L78.3508 272.173L61.444 282.971L61.5246 265.614L78.2598 254.197Z" fill="white" stroke="#262626" stroke-width="0.496227" stroke-miterlimit="10"/>
<path d="M135.025 266.464C127.556 268.534 119.823 264.16 117.754 256.695C115.684 249.229 120.062 241.499 127.531 239.428C135.001 237.358 142.733 241.732 144.803 249.197C146.872 256.663 142.494 264.393 135.025 266.464Z" fill="#262626"/>
<path d="M131.466 260.449C123.997 262.52 116.265 258.146 114.195 250.68C112.126 243.214 116.503 235.484 123.973 233.414C131.442 231.343 139.175 235.717 141.244 243.183C143.313 250.648 138.936 258.379 131.466 260.449Z" fill="white" stroke="#262626" stroke-width="0.496227" stroke-miterlimit="10"/>
<path d="M127.721 246.932L181.609 151.768" stroke="#FF6B00" stroke-width="0.496227" stroke-miterlimit="10"/>
<path d="M187.247 160.871C179.777 162.942 172.045 158.568 169.975 151.102C167.906 143.637 172.284 135.906 179.753 133.836C187.222 131.765 194.955 136.139 197.024 143.605C199.094 151.07 194.716 158.801 187.247 160.871Z" fill="white" stroke="#FF6B00" stroke-width="0.496227" stroke-miterlimit="10"/>
<path d="M178.335 134.34L180.615 128.93L193.77 145.507L183.802 164.493L181.356 161.282" stroke="#FF6B00" stroke-width="0.496227" stroke-miterlimit="10"/>
<path d="M247.764 194.627L242.899 199.082L242.587 197.957L246.321 194.686L246.302 194.616L241.416 193.734L241.104 192.609L247.569 193.924L247.764 194.627ZM236.115 201.266L241.744 199.706L242.012 200.673L236.383 202.234L236.115 201.266ZM230.515 202.818L236.144 201.258L236.413 202.225L230.783 203.786L230.515 202.818ZM224.915 204.37L230.545 202.81L230.813 203.777L225.183 205.338L224.915 204.37ZM218.179 196.084L219.129 195.82L225.021 205.8L224.071 206.063L218.179 196.084ZM214.901 207.146L220.53 205.586L220.798 206.553L215.169 208.114L214.901 207.146ZM207.121 205.893L206.926 205.189L211.791 200.734L212.103 201.859L208.369 205.13L208.388 205.2L213.274 206.082L213.586 207.207L207.121 205.893Z" fill="black"/>
<path d="M308.562 166.578C306.224 167.226 303.804 165.857 303.156 163.521C302.509 161.184 303.879 158.765 306.216 158.117C308.554 157.469 310.974 158.838 311.622 161.174C312.27 163.511 310.9 165.93 308.562 166.578Z" fill="white" stroke="#F55800" stroke-width="0.496227" stroke-miterlimit="10"/>
<path d="M356.042 83.1926C346.748 85.7688 337.127 80.3266 334.552 71.0372C331.977 61.7479 337.424 52.129 346.718 49.5529C356.012 46.9768 365.633 52.4189 368.208 61.7083C370.783 70.9977 365.336 80.6165 356.042 83.1926Z" fill="white" stroke="#F55800" stroke-width="0.496227" stroke-miterlimit="10"/>
<path d="M128.709 248.876C127.34 249.256 125.924 248.454 125.544 247.087C125.165 245.719 125.967 244.303 127.336 243.923C128.704 243.544 130.121 244.345 130.5 245.713C130.879 247.081 130.077 248.497 128.709 248.876Z" fill="white" stroke="#FF6B00" stroke-width="0.496227" stroke-miterlimit="10"/>
<path d="M336.992 56.5802C336.992 56.5802 339.29 67.2772 349.31 72.9447C359.33 78.6123 366.42 75.3136 366.42 75.3136" fill="white"/>
<path d="M336.992 56.5802C336.992 56.5802 339.29 67.2772 349.31 72.9447C359.33 78.6123 366.42 75.3136 366.42 75.3136" stroke="#F55800" stroke-width="0.496227" stroke-miterlimit="10"/>
<path d="M227.455 105.392L241.256 100.234L239.597 85.0258L253.828 79.4144L255.544 94.8287L270.348 89.2806L272.104 105.239L257.213 110.478L242.736 115.602L244.348 131.045L230.405 135.688L231.885 151.056L218.372 155.246L216.977 140.187L215.508 125.26L228.878 120.554L227.455 105.392Z" fill="#666666"/>
<path d="M225.984 90.467L224.412 75.5687L238.069 69.894L239.596 85.0274L225.984 90.467Z" fill="#262626"/>
<path d="M214.064 110.437L212.652 95.716L225.982 90.4653L227.452 105.392L214.064 110.437Z" fill="#262626"/>
<path d="M199.914 100.694L198.587 86.2829L211.241 80.9976L212.653 95.7181L199.914 100.694Z" fill="#262626"/>
<path d="M201.269 115.208L214.066 110.439L215.507 125.263L202.549 129.854L190.108 134.303L188.782 119.892L187.484 105.584L199.914 100.694L201.269 115.208Z" fill="#FF6B00"/>
<path d="M268.648 73.5281L253.826 79.4143L252.213 63.9715L238.068 69.8924L236.57 54.8623L250.658 48.735L265.234 42.3614L266.875 57.9075L282.127 51.5686L297.97 44.9548L299.914 61.1945L283.986 67.4988L285.77 83.5608L270.346 89.2805L268.648 73.5281Z" fill="#F55800"/>
<path d="M301.887 77.5369L303.785 94.0116L287.685 99.6967L285.769 83.5601L301.887 77.5369Z" fill="#262626"/>
<path d="M278.524 20.1211L280.297 35.7417L265.234 42.3616L263.518 26.9473L278.524 20.1211Z" fill="#262626"/>
<path d="M224.409 75.5697L211.239 80.998L209.884 66.4839L208.558 52.0729L221.481 46.1572L234.996 39.9666L236.569 54.8649L222.968 60.7459L224.409 75.5697Z" fill="#262626"/>
<path d="M185.001 77.3795L197.288 71.9736L198.586 86.2814L186.242 91.4809L185.001 77.3795Z" fill="#262626"/>
<path d="M175.57 110.327L174.358 96.3292L186.243 91.4792L187.484 105.581L175.57 110.327Z" fill="#262626"/>
<path d="M287.686 99.6965L289.527 115.965L273.857 121.197L272.101 105.239L287.686 99.6965Z" fill="#262626"/>
<path d="M110.621 148.33L338.967 215.71" stroke="#FF6B00" stroke-width="0.496227" stroke-miterlimit="10"/>
<path d="M346.678 191.791L346.834 223.638L315.937 248.537L316.124 217.928L346.678 191.791Z" fill="white" stroke="#666666" stroke-width="0.496227" stroke-miterlimit="10"/>
</g>
<defs>
<clipPath id="clip0_48_297">
<rect width="406.889" height="312.031" fill="white" transform="matrix(-0.963665 0.267112 0.267112 0.963665 351.104 0)"/>
</clipPath>
</defs>
</svg>
